<svg xmlns="http://www.w3.org/2000/svg" width="1008" height="1040" viewBox="0 0 1008 1040">
<g>
<path d="M 875.44 889.78 L 873.89 892.00 L 526.10 892.00 C190.44,892.00 178.25,891.94 176.65,890.17 C175.22,888.59 175.00,885.41 175.00,866.29 C175.00,849.31 175.30,843.99 176.31,843.15 C177.06,842.53 182.99,841.94 190.06,841.78 L 202.50 841.50 L 203.00 544.33 C203.27,380.89 203.85,246.82 204.27,246.40 C204.69,245.98 206.94,245.38 209.27,245.06 L 213.50 244.50 L 214.00 221.90 C214.53,197.91 214.93,196.00 219.43,196.00 C224.81,196.00 224.96,196.67 225.24,221.50 L 225.50 244.50 L 233.50 244.50 L 233.76 212.59 C233.94,191.07 234.39,180.24 235.14,179.34 C236.87,177.25 242.74,177.65 243.96,179.93 C244.62,181.15 245.00,193.59 245.00,213.44 L 245.00 245.01 L 375.75 244.75 L 506.50 244.50 L 506.76 212.59 C506.94,191.07 507.39,180.24 508.14,179.34 C509.87,177.25 515.74,177.65 516.96,179.93 C517.62,181.15 518.00,193.61 518.00,213.49 L 518.00 245.12 L 525.50 244.50 L 526.00 221.90 C526.38,204.80 526.83,198.90 527.87,197.65 C529.52,195.67 534.32,195.48 535.86,197.33 C536.57,198.19 537.06,206.72 537.23,221.58 L 537.50 244.50 L 541.00 244.83 C542.92,245.01 545.29,245.87 546.25,246.73 C547.89,248.21 548.00,254.17 548.00,344.66 L 548.00 441.01 L 677.75 440.75 L 807.50 440.50 L 807.76 407.59 C807.94,385.33 808.39,374.24 809.14,373.34 C810.91,371.20 815.68,371.71 817.44,374.22 C818.77,376.12 819.00,381.09 819.00,408.28 L 819.00 440.12 L 826.50 439.50 L 827.00 416.50 C827.28,403.85 827.86,392.94 828.31,392.25 C829.34,390.66 835.22,390.62 836.80,392.20 C837.66,393.06 838.00,399.89 838.00,416.61 L 838.00 439.82 L 841.99 440.50 C844.19,440.87 846.33,441.70 846.74,442.34 C847.16,442.98 847.72,533.05 848.00,642.50 L 848.50 841.50 L 860.96 841.78 C870.76,842.00 873.80,842.41 875.21,843.69 C876.82,845.15 877.00,847.39 877.00,866.43 C877.00,883.93 876.73,887.94 875.44,889.78 ZM 214.70 841.37 C215.08,841.75 220.15,841.94 225.95,841.78 L 236.50 841.50 L 236.50 759.40 C236.50,691.29 236.73,677.03 237.87,675.65 C239.14,674.13 249.98,674.00 375.56,674.00 C483.52,674.00 512.05,674.26 512.69,675.25 C513.14,675.94 513.72,713.62 514.00,759.00 L 514.50 841.50 L 536.50 841.50 L 536.76 758.87 C536.96,692.58 537.27,676.02 538.31,675.16 C540.34,673.47 810.45,673.30 812.48,674.98 C813.80,676.08 814.02,686.54 814.24,758.87 L 814.50 841.50 L 836.50 841.50 L 837.01 451.00 L 688.57 451.00 C554.97,451.00 539.99,450.84 538.57,449.43 C537.16,448.02 537.00,437.80 537.00,351.93 L 537.00 256.00 L 214.00 256.00 L 214.00 548.33 C214.00,709.12 214.31,840.98 214.70,841.37 ZM 811.86 650.25 C809.90,651.90 801.93,652.00 675.61,652.00 C555.80,652.00 541.21,651.83 539.22,650.44 L 537.00 648.89 L 537.00 561.98 C537.00,477.08 537.04,475.05 538.93,474.04 C540.24,473.34 584.69,473.00 675.78,473.00 L 810.69 473.00 L 812.59 475.10 C814.43,477.14 814.48,479.88 814.22,562.85 C813.95,648.26 813.94,648.50 811.86,650.25 ZM 511.78 650.44 C509.79,651.83 495.20,652.00 375.39,652.00 C245.00,652.00 241.16,651.95 238.87,650.10 L 236.52 648.19 L 236.85 561.85 C237.06,504.23 237.52,475.08 238.21,474.25 C239.03,473.26 267.61,473.00 374.97,473.00 C505.18,473.00 510.76,473.07 512.35,474.83 C513.86,476.50 514.00,484.04 514.00,562.77 L 514.00 648.89 ZM 512.17 449.35 C510.49,450.87 499.56,451.00 375.33,451.00 C247.99,451.00 240.22,450.90 238.77,449.25 C237.41,447.71 237.18,437.48 236.86,364.41 C236.56,295.05 236.73,281.04 237.87,279.66 C239.14,278.13 249.87,278.00 375.42,278.00 C480.00,278.00 511.88,278.28 512.80,279.20 C513.71,280.11 514.00,300.32 514.00,364.05 C514.00,443.81 513.92,447.77 512.17,449.35 ZM 548.24 584.75 L 547.98 641.01 L 645.24 640.75 L 742.50 640.50 L 742.76 584.77 L 743.02 529.04 L 740.76 528.50 C739.52,528.20 695.75,528.07 643.50,528.23 L 548.50 528.50 ZM 309.00 337.00 L 309.00 441.01 L 502.50 440.50 L 503.02 337.00 ZM 185.39 879.59 C185.86,880.81 233.32,880.97 525.72,880.75 L 865.50 880.50 L 865.78 866.75 L 866.06 853.00 L 525.78 853.25 L 185.50 853.50 L 185.18 865.83 C185.00,872.62 185.10,878.81 185.39,879.59 ZM 548.00 719.00 L 548.00 808.00 L 644.30 808.00 C717.87,808.00 740.88,807.72 741.80,806.80 C742.70,805.90 743.00,794.64 743.00,762.30 L 743.00 719.00 ZM 308.67 807.34 C309.04,807.71 352.80,807.90 405.92,807.75 L 502.50 807.50 L 503.02 719.00 L 308.00 719.00 L 308.00 762.83 C308.00,786.94 308.30,806.97 308.67,807.34 ZM 309.25 640.34 C311.04,641.06 451.05,641.09 453.75,640.37 L 456.00 639.77 L 456.00 527.00 L 383.58 527.00 C343.75,527.00 310.45,527.27 309.58,527.61 C308.17,528.15 308.00,534.05 308.00,584.02 C308.00,627.74 308.27,639.94 309.25,640.34 ZM 283.94 308.92 L 305.38 326.01 L 502.50 325.50 L 503.05 289.00 L 381.31 289.00 C276.25,289.00 259.77,289.19 261.04,290.42 C261.84,291.20 272.15,299.52 283.94,308.92 ZM 548.67 516.33 C549.03,516.70 593.86,517.00 648.28,517.00 L 747.23 517.00 L 753.16 511.00 C756.42,507.70 759.95,505.00 761.01,505.00 C762.07,505.00 763.91,503.69 765.09,502.09 C766.27,500.49 768.87,498.36 770.87,497.36 C774.49,495.54 790.00,484.98 790.00,484.34 C790.00,484.15 735.55,484.00 669.00,484.00 L 548.00 484.00 L 548.00 499.83 C548.00,508.54 548.30,515.97 548.67,516.33 ZM 753.67 640.33 C754.03,640.70 765.28,641.00 778.67,641.00 L 803.00 641.00 L 803.00 565.00 C803.00,523.20 802.73,489.00 802.40,489.00 C802.08,489.00 799.77,490.80 797.27,492.99 C794.78,495.19 791.54,497.58 790.08,498.31 C786.96,499.86 754.85,523.85 753.77,525.43 C752.85,526.77 752.75,639.42 753.67,640.33 ZM 248.68 640.35 C249.62,641.28 297.56,640.69 297.25,639.75 C297.11,639.34 297.00,613.21 297.00,581.69 L 297.00 524.39 L 292.75 521.36 C290.41,519.70 279.63,511.96 268.80,504.17 C257.96,496.38 248.85,490.00 248.55,490.00 C247.74,490.00 247.88,639.55 248.68,640.35 ZM 296.38 510.16 L 304.35 516.00 L 460.12 516.00 L 476.05 500.92 C484.81,492.63 492.23,485.43 492.55,484.92 C492.90,484.36 447.78,484.00 377.00,484.00 C301.79,484.00 261.09,484.34 261.48,484.98 C261.82,485.51 268.01,490.08 275.25,495.14 C282.49,500.19 292.00,506.95 296.38,510.16 ZM 248.00 367.67 L 248.00 439.50 L 296.50 439.50 L 296.79 386.64 C297.05,341.35 296.88,333.62 295.64,332.64 C294.84,332.01 284.21,323.62 272.03,314.00 C259.85,304.38 249.46,296.35 248.94,296.17 C248.36,295.96 248.00,323.24 248.00,367.67 ZM 248.00 763.00 C248.00,803.70 248.21,837.00 248.47,837.00 C248.74,837.00 258.30,831.67 269.72,825.14 C281.15,818.62 291.96,812.54 293.75,811.62 L 297.00 809.95 L 296.97 762.72 L 296.95 715.50 L 285.34 709.00 C278.95,705.42 270.52,700.78 266.61,698.68 C262.70,696.58 257.14,693.55 254.27,691.93 C251.39,690.32 248.80,689.00 248.52,689.00 C248.23,689.00 248.00,722.30 248.00,763.00 ZM 796.31 834.03 C798.62,835.63 801.06,836.95 801.75,836.97 C802.74,836.99 803.00,821.45 803.00,762.48 L 803.00 687.97 L 796.75 691.85 C787.60,697.54 765.32,710.34 759.25,713.39 L 754.00 716.03 L 754.00 809.80 L 757.75 811.76 C770.56,818.48 790.41,829.94 796.31,834.03 ZM 304.50 707.15 C305.60,707.51 350.60,707.73 404.50,707.65 L 502.50 707.50 L 503.06 684.00 L 383.82 684.00 C373.89,684.00 364.77,684.00 356.38,683.99 C285.45,683.97 267.38,683.96 267.12,686.13 C267.03,686.87 269.02,687.86 271.69,689.20 C272.61,689.66 273.62,690.16 274.65,690.71 C278.58,692.79 286.45,697.20 292.15,700.50 C297.84,703.80 303.40,706.79 304.50,707.15 ZM 547.44 706.70 C547.87,707.81 565.10,708.00 647.73,707.77 L 747.50 707.50 L 765.88 696.82 C775.99,690.95 784.74,685.66 785.33,685.07 C786.10,684.30 752.18,684.06 666.95,684.25 L 547.50 684.50 L 547.21 694.93 C547.06,700.67 547.16,705.97 547.44,706.70 ZM 266.00 841.23 C266.00,841.68 319.21,841.92 384.25,841.77 L 502.50 841.50 L 503.07 819.00 L 303.17 819.00 L 295.33 823.65 C291.02,826.20 285.48,829.40 283.00,830.76 C271.90,836.85 266.00,840.48 266.00,841.23 ZM 548.65 841.32 C549.69,842.36 783.99,841.63 784.10,840.58 C784.15,840.07 776.16,835.02 766.35,829.36 L 748.50 819.06 L 648.25 819.03 L 548.00 819.00 L 548.00 829.83 C548.00,835.79 548.29,840.96 548.65,841.32 ZM 468.69 640.36 C469.07,640.74 476.83,640.92 485.94,640.77 L 502.50 640.50 L 502.76 566.25 C502.90,525.41 502.74,492.00 502.40,492.00 C502.06,492.00 494.18,499.26 484.89,508.13 L 468.00 524.26 L 468.00 581.97 C468.00,613.70 468.31,639.98 468.69,640.36 Z" fill="rgb(50,56,60)"/>
<path d="M 753.67 640.33 C752.75,639.42 752.85,526.77 753.77,525.43 C754.85,523.85 786.96,499.86 790.08,498.31 C791.54,497.58 794.78,495.19 797.27,492.99 C799.77,490.80 802.08,489.00 802.40,489.00 C802.73,489.00 803.00,523.20 803.00,565.00 L 803.00 641.00 L 778.67 641.00 C765.28,641.00 754.03,640.70 753.67,640.33 ZM 754.13 582.81 L 754.24 639.50 L 773.37 639.35 C783.89,639.27 793.40,638.96 794.50,638.68 C795.60,638.39 797.29,638.12 798.25,638.08 C799.61,638.02 800.03,637.04 800.14,633.75 L 800.28 629.50 L 801.00 633.50 C801.39,635.70 801.78,604.26 801.86,563.63 C801.97,504.67 801.75,489.95 800.75,490.71 C800.06,491.23 796.68,493.79 793.23,496.40 C789.79,499.01 787.19,501.49 787.45,501.93 C788.25,503.21 783.29,507.24 780.55,507.54 C779.15,507.70 776.21,509.25 774.01,511.00 C770.27,513.95 768.54,516.02 771.15,514.40 C771.87,513.96 772.04,514.13 771.60,514.85 C771.20,515.48 769.98,516.00 768.88,516.00 C767.78,516.00 767.14,516.41 767.45,516.92 C768.08,517.94 763.39,522.01 761.62,521.98 C761.00,521.98 761.17,521.53 762.00,521.00 C762.83,520.47 763.04,520.02 762.48,520.02 C761.92,520.01 759.78,521.38 757.74,523.06 L 754.02 526.13 ZM 547.44 706.70 C547.16,705.97 547.06,700.67 547.21,694.93 L 547.50 684.50 L 666.95 684.25 C752.18,684.06 786.10,684.30 785.33,685.07 C784.74,685.66 775.99,690.95 765.88,696.82 L 747.50 707.50 L 647.73 707.77 C565.10,708.00 547.87,707.81 547.44,706.70 ZM 548.00 685.00 L 548.00 706.00 L 747.89 706.00 L 753.95 702.45 C757.28,700.50 760.00,698.46 760.00,697.93 C760.00,697.39 761.24,696.49 762.75,695.92 C769.78,693.29 779.69,688.48 781.47,686.83 C783.38,685.06 779.75,685.00 665.72,685.00 ZM 304.50 707.15 C303.40,706.79 297.84,703.80 292.15,700.50 C286.45,697.20 278.58,692.79 274.65,690.71 C273.62,690.16 272.61,689.66 271.69,689.20 C269.02,687.86 267.03,686.87 267.12,686.13 C267.14,685.95 267.28,685.79 267.55,685.64 L 272.39 688.56 C280.85,693.66 288.32,697.33 287.48,695.97 C286.93,695.08 287.27,695.08 288.88,695.94 C290.05,696.56 291.01,696.72 291.03,696.29 C291.05,695.85 291.53,696.31 292.10,697.29 C292.68,698.28 295.25,700.63 297.82,702.52 L 302.50 705.95 L 361.19 705.98 C399.27,705.99 420.10,705.65 420.50,705.00 C420.84,704.45 421.65,704.01 422.31,704.02 C423.02,704.02 422.90,704.42 422.00,705.00 C421.02,705.63 434.57,705.97 461.25,705.98 L 502.00 706.00 L 502.00 685.00 L 384.25 685.00 L 270.14 685.01 C277.67,683.97 300.79,683.97 356.37,683.99 L 356.38 683.99 C364.77,684.00 373.89,684.00 383.82,684.00 L 503.06 684.00 L 502.50 707.50 L 404.50 707.65 C350.60,707.73 305.60,707.51 304.50,707.15 ZM 796.31 834.03 C792.93,831.69 784.99,826.94 776.41,822.04 C778.95,823.48 781.75,825.06 784.85,826.83 C797.07,833.79 800.00,834.57 800.00,830.89 C800.00,829.85 800.45,829.00 801.00,829.00 C801.66,829.00 802.00,806.48 802.00,763.44 C802.00,719.99 801.66,698.09 801.00,698.50 C800.45,698.84 800.00,698.16 800.00,697.00 C800.00,695.84 800.45,695.16 801.00,695.50 C801.60,695.87 802.00,694.64 802.00,692.46 L 802.00 688.80 L 798.25 691.05 C795.98,692.41 793.46,693.90 790.83,695.44 C793.11,694.09 795.13,692.86 796.75,691.85 L 803.00 687.97 L 803.00 762.48 C803.00,821.45 802.74,836.99 801.75,836.97 C801.06,836.95 798.62,835.63 796.31,834.03 ZM 789.25 518.36 C785.50,519.42 775.00,520.15 775.01,519.35 C775.05,516.95 788.78,511.11 790.45,512.78 C791.72,514.05 790.89,517.90 789.25,518.36 ZM 295.42 714.65 L 289.37 711.53 C284.86,709.21 280.57,707.68 278.90,707.81 C275.95,708.04 269.53,704.80 270.67,703.66 C271.03,703.30 270.78,703.00 270.11,703.00 C269.43,703.00 269.11,702.64 269.38,702.19 C269.69,701.70 260.65,695.73 254.38,692.00 C257.29,693.62 262.75,696.61 266.61,698.68 C270.52,700.78 278.95,705.42 285.34,709.00 ZM 754.44 495.09 C753.88,496.00 748.49,496.11 744.19,495.29 C742.69,495.00 742.00,494.26 742.21,493.17 C742.47,491.84 743.71,491.50 748.26,491.50 C753.80,491.50 755.91,492.72 754.44,495.09 ZM 747.00 819.06 L 748.50 819.06 L 766.35 829.36 C770.64,831.83 774.58,834.19 777.65,836.10 C774.37,834.43 770.77,832.89 769.11,832.66 C767.79,832.48 766.17,831.58 765.50,830.67 C764.83,829.75 763.43,828.99 762.39,828.97 C760.52,828.94 755.75,826.00 757.56,826.00 C758.08,826.00 755.89,824.42 752.70,822.50 ZM 255.30 833.30 C259.78,830.38 265.00,826.54 265.00,825.92 C265.00,825.42 265.92,825.00 267.05,825.00 C268.17,825.00 270.18,823.83 271.50,822.41 C272.82,820.98 274.29,820.06 274.77,820.36 C275.25,820.66 280.34,818.52 286.07,815.60 L 291.35 812.93 C287.17,815.24 278.63,820.06 269.72,825.14 C264.20,828.30 259.11,831.17 255.30,833.30 ZM 296.50 810.21 L 296.76 762.89 L 296.95 727.29 L 296.97 762.72 L 297.00 809.95 ZM 762.00 493.00 C762.00,494.27 761.33,495.00 760.17,495.00 C757.63,495.00 756.81,493.93 758.13,492.34 C759.79,490.34 762.00,490.72 762.00,493.00 ZM 746.50 497.00 C746.85,497.57 746.01,498.00 744.56,498.00 C743.15,498.00 742.00,497.55 742.00,497.00 C742.00,496.45 742.87,496.00 743.94,496.00 C745.01,496.00 746.16,496.45 746.50,497.00 ZM 248.20 822.83 C248.37,833.67 248.71,836.27 249.33,836.58 C248.81,836.85 248.52,837.00 248.47,837.00 C248.37,837.00 248.27,831.73 248.20,822.83 ZM 248.00 763.00 C248.00,722.30 248.23,689.00 248.52,689.00 C248.54,689.00 248.57,689.01 248.62,689.02 C248.28,690.03 248.00,722.92 248.00,763.00 ZM 784.10 840.56 C784.10,840.57 784.10,840.57 784.10,840.58 C784.05,840.99 747.90,841.35 703.93,841.58 C746.33,841.34 781.50,840.98 784.10,840.56 Z" fill="rgb(106,110,114)"/>
<path d="M 214.70 841.37 C214.31,840.98 214.00,709.12 214.00,548.33 L 214.00 256.00 L 537.00 256.00 L 537.00 351.93 C537.00,437.80 537.16,448.02 538.57,449.43 C539.99,450.84 554.97,451.00 688.57,451.00 L 837.01 451.00 L 836.50 841.50 L 814.50 841.50 L 814.24 758.87 C814.02,686.54 813.80,676.08 812.48,674.98 C810.45,673.30 540.34,673.47 538.31,675.16 C537.27,676.02 536.96,692.58 536.76,758.87 L 536.50 841.50 L 514.50 841.50 L 514.00 759.00 C513.72,713.62 513.14,675.94 512.69,675.25 C512.05,674.26 483.52,674.00 375.56,674.00 C249.98,674.00 239.14,674.13 237.87,675.65 C236.73,677.03 236.50,691.29 236.50,759.40 L 236.50 841.50 L 225.95 841.78 C220.15,841.94 215.08,841.75 214.70,841.37 ZM 811.86 650.25 C813.94,648.50 813.95,648.26 814.22,562.85 C814.48,479.88 814.43,477.14 812.59,475.10 L 810.69 473.00 L 675.78 473.00 C584.69,473.00 540.24,473.34 538.93,474.04 C537.04,475.05 537.00,477.08 537.00,561.98 L 537.00 648.89 L 539.22 650.44 C541.21,651.83 555.80,652.00 675.61,652.00 C801.93,652.00 809.90,651.90 811.86,650.25 ZM 511.78 650.44 L 514.00 648.89 L 514.00 562.77 C514.00,484.04 513.86,476.50 512.35,474.83 C510.76,473.07 505.18,473.00 374.97,473.00 C267.61,473.00 239.03,473.26 238.21,474.25 C237.52,475.08 237.06,504.23 236.85,561.85 L 236.52 648.19 L 238.87 650.10 C241.16,651.95 245.00,652.00 375.39,652.00 C495.20,652.00 509.79,651.83 511.78,650.44 ZM 512.17 449.35 C513.92,447.77 514.00,443.81 514.00,364.05 C514.00,300.32 513.71,280.11 512.80,279.20 C511.88,278.28 480.00,278.00 375.42,278.00 C249.87,278.00 239.14,278.13 237.87,279.66 C236.73,281.04 236.56,295.05 236.86,364.41 C237.18,437.48 237.41,447.71 238.77,449.25 C240.22,450.90 247.99,451.00 375.33,451.00 C499.56,451.00 510.49,450.87 512.17,449.35 ZM 185.39 879.59 C185.10,878.81 185.00,872.62 185.18,865.83 L 185.50 853.50 L 525.78 853.25 L 866.06 853.00 L 865.78 866.75 L 865.50 880.50 L 525.72 880.75 C233.32,880.97 185.86,880.81 185.39,879.59 ZM 283.94 308.92 C272.15,299.52 261.84,291.20 261.04,290.42 C259.77,289.19 276.25,289.00 381.31,289.00 L 503.05 289.00 L 502.50 325.50 L 305.38 326.01 ZM 548.67 516.33 C548.30,515.97 548.00,508.54 548.00,499.83 L 548.00 484.00 L 669.00 484.00 C735.55,484.00 790.00,484.15 790.00,484.34 C790.00,484.98 774.49,495.54 770.87,497.36 C768.87,498.36 766.27,500.49 765.09,502.09 C763.91,503.69 762.07,505.00 761.01,505.00 C759.95,505.00 756.42,507.70 753.16,511.00 L 747.23 517.00 L 648.28 517.00 C593.86,517.00 549.03,516.70 548.67,516.33 ZM 754.13 582.81 L 754.02 526.13 L 757.74 523.06 C759.78,521.38 761.92,520.01 762.48,520.02 C763.04,520.02 762.83,520.47 762.00,521.00 C761.17,521.53 761.00,521.98 761.62,521.98 C763.39,522.01 768.08,517.94 767.45,516.92 C767.14,516.41 767.78,516.00 768.88,516.00 C769.98,516.00 771.20,515.48 771.60,514.85 C772.04,514.13 771.87,513.96 771.15,514.40 C768.54,516.02 770.27,513.95 774.01,511.00 C776.21,509.25 779.15,507.70 780.55,507.54 C783.29,507.24 788.25,503.21 787.45,501.93 C787.19,501.49 789.79,499.01 793.23,496.40 C796.68,493.79 800.06,491.23 800.75,490.71 C801.75,489.95 801.97,504.67 801.86,563.63 C801.78,604.26 801.39,635.70 801.00,633.50 L 800.28 629.50 L 800.14 633.75 C800.03,637.04 799.61,638.02 798.25,638.08 C797.29,638.12 795.60,638.39 794.50,638.68 C793.40,638.96 783.89,639.27 773.37,639.35 L 754.24 639.50 ZM 248.00 367.67 C248.00,323.24 248.36,295.96 248.94,296.17 C249.46,296.35 259.85,304.38 272.03,314.00 C284.21,323.62 294.84,332.01 295.64,332.64 C296.88,333.62 297.05,341.35 296.79,386.64 L 296.50 439.50 L 248.00 439.50 ZM 248.00 763.00 C248.00,722.92 248.28,690.03 248.62,689.02 C249.20,689.21 251.61,690.45 254.27,691.93 L 254.38 692.00 C260.65,695.73 269.69,701.70 269.38,702.19 C269.11,702.64 269.43,703.00 270.11,703.00 C270.78,703.00 271.03,703.30 270.67,703.66 C269.53,704.80 275.95,708.04 278.90,707.81 C280.57,707.68 284.86,709.21 289.37,711.53 L 295.42 714.65 L 296.95 715.50 L 296.95 727.29 L 296.76 762.89 L 296.50 810.21 L 293.75 811.62 C293.36,811.82 292.52,812.27 291.35,812.93 L 286.07 815.60 C280.34,818.52 275.25,820.66 274.77,820.36 C274.29,820.06 272.82,820.98 271.50,822.41 C270.18,823.83 268.17,825.00 267.05,825.00 C265.92,825.00 265.00,825.42 265.00,825.92 C265.00,826.54 259.78,830.38 255.30,833.30 C252.53,834.85 250.43,836.00 249.33,836.58 C248.71,836.27 248.37,833.67 248.20,822.83 C248.08,809.34 248.00,787.51 248.00,763.00 ZM 759.25 713.39 C764.25,710.88 780.23,701.76 790.83,695.44 C793.46,693.90 795.98,692.41 798.25,691.05 L 802.00 688.80 L 802.00 692.46 C802.00,694.64 801.60,695.87 801.00,695.50 C800.45,695.16 800.00,695.84 800.00,697.00 C800.00,698.16 800.45,698.84 801.00,698.50 C801.66,698.09 802.00,719.99 802.00,763.44 C802.00,806.48 801.66,829.00 801.00,829.00 C800.45,829.00 800.00,829.85 800.00,830.89 C800.00,834.57 797.07,833.79 784.85,826.83 C781.75,825.07 778.96,823.48 776.41,822.04 L 776.41 822.04 C770.00,818.38 763.23,814.64 757.75,811.76 L 754.00 809.80 L 754.00 716.03 ZM 266.00 841.23 C266.00,840.48 271.90,836.85 283.00,830.76 C285.48,829.40 291.02,826.20 295.33,823.65 L 303.17 819.00 L 503.07 819.00 L 502.50 841.50 L 384.25 841.77 C319.21,841.92 266.00,841.68 266.00,841.23 ZM 548.65 841.32 C548.29,840.96 548.00,835.79 548.00,829.83 L 548.00 819.00 L 648.25 819.03 L 747.00 819.06 L 752.70 822.50 C755.89,824.42 758.08,826.00 757.56,826.00 C755.75,826.00 760.52,828.94 762.39,828.97 C763.43,828.99 764.83,829.75 765.50,830.67 C766.17,831.58 767.79,832.48 769.11,832.66 C770.77,832.89 774.37,834.43 777.65,836.10 C781.52,838.52 784.02,840.22 784.10,840.56 C781.50,840.98 746.34,841.34 703.95,841.58 L 703.93 841.58 C635.94,841.93 549.28,841.95 548.65,841.32 ZM 548.00 685.00 L 665.72 685.00 C779.75,685.00 783.38,685.06 781.47,686.83 C779.69,688.48 769.78,693.29 762.75,695.92 C761.24,696.49 760.00,697.39 760.00,697.93 C760.00,698.46 757.28,700.50 753.95,702.45 L 747.89 706.00 L 548.00 706.00 ZM 272.39 688.56 L 267.55 685.64 C268.01,685.39 268.85,685.18 270.14,685.01 L 384.25 685.00 L 502.00 685.00 L 502.00 706.00 L 461.25 705.98 C434.57,705.97 421.02,705.63 422.00,705.00 C422.90,704.42 423.02,704.02 422.31,704.02 C421.65,704.01 420.84,704.45 420.50,705.00 C420.10,705.65 399.27,705.99 361.19,705.98 L 302.50 705.95 L 297.82 702.52 C295.25,700.63 292.68,698.28 292.10,697.29 C291.53,696.31 291.05,695.85 291.03,696.29 C291.01,696.72 290.05,696.56 288.88,695.94 C287.27,695.08 286.93,695.08 287.48,695.97 C288.32,697.33 280.85,693.66 272.39,688.56 ZM 789.25 518.36 C790.89,517.90 791.72,514.05 790.45,512.78 C788.78,511.11 775.05,516.95 775.01,519.35 C775.00,520.15 785.50,519.42 789.25,518.36 ZM 754.44 495.09 C755.91,492.72 753.80,491.50 748.26,491.50 C743.71,491.50 742.47,491.84 742.21,493.17 C742.00,494.26 742.69,495.00 744.19,495.29 C748.49,496.11 753.88,496.00 754.44,495.09 ZM 762.00 493.00 C762.00,490.72 759.79,490.34 758.13,492.34 C756.81,493.93 757.63,495.00 760.17,495.00 C761.33,495.00 762.00,494.27 762.00,493.00 ZM 746.50 497.00 C746.16,496.45 745.01,496.00 743.94,496.00 C742.87,496.00 742.00,496.45 742.00,497.00 C742.00,497.55 743.15,498.00 744.56,498.00 C746.01,498.00 746.85,497.57 746.50,497.00 Z" fill="rgb(165,168,169)"/>
<path d="M 309.25 640.34 C308.27,639.94 308.00,627.74 308.00,584.02 C308.00,534.05 308.17,528.15 309.58,527.61 C310.45,527.27 343.75,527.00 383.58,527.00 L 456.00 527.00 L 456.00 639.77 L 453.75 640.37 C451.05,641.09 311.04,641.06 309.25,640.34 Z" fill="rgb(187,84,46)"/>
<path d="M 248.68 640.35 C247.88,639.55 247.74,490.00 248.55,490.00 C248.85,490.00 257.96,496.38 268.80,504.17 C279.63,511.96 290.41,519.70 292.75,521.36 L 297.00 524.39 L 297.00 581.69 C297.00,613.21 297.11,639.34 297.25,639.75 C297.56,640.69 249.62,641.28 248.68,640.35 ZM 296.38 510.16 C292.00,506.95 282.49,500.19 275.25,495.14 C268.01,490.08 261.82,485.51 261.48,484.98 C261.09,484.34 301.79,484.00 377.00,484.00 C447.78,484.00 492.90,484.36 492.55,484.92 C492.23,485.43 484.81,492.63 476.05,500.92 L 460.12 516.00 L 304.35 516.00 ZM 468.69 640.36 C468.31,639.98 468.00,613.70 468.00,581.97 L 468.00 524.26 L 484.89 508.13 C494.18,499.26 502.06,492.00 502.40,492.00 C502.74,492.00 502.90,525.41 502.76,566.25 L 502.50 640.50 L 485.94 640.77 C476.83,640.92 469.07,640.74 468.69,640.36 Z" fill="rgb(208,117,61)"/>
<path d="M 0.00 520.00 L 0.00 0.00 L 504.00 0.00 L 1008.00 0.00 L 1008.00 520.00 L 1008.00 1040.00 L 504.00 1040.00 L 0.00 1040.00 L 0.00 520.00 ZM 875.44 889.78 C876.73,887.94 877.00,883.93 877.00,866.43 C877.00,847.39 876.82,845.15 875.21,843.69 C873.80,842.41 870.76,842.00 860.96,841.78 L 848.50 841.50 L 848.00 642.50 C847.72,533.05 847.16,442.98 846.74,442.34 C846.33,441.70 844.19,440.87 841.99,440.50 L 838.00 439.82 L 838.00 416.61 C838.00,399.89 837.66,393.06 836.80,392.20 C835.22,390.62 829.34,390.66 828.31,392.25 C827.86,392.94 827.28,403.85 827.00,416.50 L 826.50 439.50 L 822.75 439.81 L 819.00 440.12 L 819.00 408.28 C819.00,381.09 818.77,376.12 817.44,374.22 C815.68,371.71 810.91,371.20 809.14,373.34 C808.39,374.24 807.94,385.33 807.76,407.59 L 807.50 440.50 L 677.75 440.75 L 548.00 441.01 L 548.00 344.66 C548.00,254.17 547.89,248.21 546.25,246.73 C545.29,245.87 542.92,245.01 541.00,244.83 L 537.50 244.50 L 537.23 221.58 C537.06,206.72 536.57,198.19 535.86,197.33 C534.32,195.48 529.52,195.67 527.87,197.65 C526.83,198.90 526.38,204.80 526.00,221.90 L 525.50 244.50 L 521.75 244.81 L 518.00 245.12 L 518.00 213.49 C518.00,193.61 517.62,181.15 516.96,179.93 C515.74,177.65 509.87,177.25 508.14,179.34 C507.39,180.24 506.94,191.07 506.76,212.59 L 506.50 244.50 L 375.75 244.75 L 245.00 245.01 L 245.00 213.44 C245.00,193.59 244.62,181.15 243.96,179.93 C242.74,177.65 236.87,177.25 235.14,179.34 C234.39,180.24 233.94,191.07 233.76,212.59 L 233.50 244.50 L 229.50 244.50 L 225.50 244.50 L 225.24 221.50 C224.96,196.67 224.81,196.00 219.43,196.00 C214.93,196.00 214.53,197.91 214.00,221.90 L 213.50 244.50 L 209.27 245.06 C206.94,245.38 204.69,245.98 204.27,246.40 C203.85,246.82 203.27,380.89 203.00,544.33 L 202.50 841.50 L 190.06 841.78 C182.99,841.94 177.06,842.53 176.31,843.15 C175.30,843.99 175.00,849.31 175.00,866.29 C175.00,885.41 175.22,888.59 176.65,890.17 C178.25,891.94 190.44,892.00 526.10,892.00 L 873.89 892.00 L 875.44 889.78 ZM 308.67 807.34 C308.30,806.97 308.00,786.94 308.00,762.83 L 308.00 719.00 L 405.51 719.00 L 503.02 719.00 L 502.76 763.25 L 502.50 807.50 L 405.92 807.75 C352.80,807.90 309.04,807.71 308.67,807.34 ZM 548.00 763.50 L 548.00 719.00 L 645.50 719.00 L 743.00 719.00 L 743.00 762.30 C743.00,794.64 742.70,805.90 741.80,806.80 C740.88,807.72 717.87,808.00 644.30,808.00 L 548.00 808.00 L 548.00 763.50 ZM 548.24 584.75 L 548.50 528.50 L 643.50 528.23 C695.75,528.07 739.52,528.20 740.76,528.50 L 743.02 529.04 L 742.76 584.77 L 742.50 640.50 L 645.24 640.75 L 547.98 641.01 L 548.24 584.75 ZM 309.00 389.00 L 309.00 337.00 L 406.01 337.00 L 503.02 337.00 L 502.76 388.75 L 502.50 440.50 L 405.75 440.75 L 309.00 441.01 L 309.00 389.00 Z" fill="rgb(254,254,254)"/>
</g>
</svg>